<?xml version="1.0" encoding="utf-8"?>
<?xml-stylesheet type="text/xsl" href="rss1.xsl"?>
<rss version="2.0" xmlns:atom="http://www.w3.org/2005/Atom" xmlns:content="http://purl.org/rss/1.0/modules/content/" xmlns:dc="http://purl.org/dc/elements/1.1/" xmlns:media="http://search.yahoo.com/mrss/">
<channel>
 <title>Getty</title>
 <link>http://www.gettyimg.com/</link>
 <atom:link href="http://www.gettyimg.com/" rel="self" type="application/rss+xml" />

 
                <item>
                <title><![CDATA[【Apple Music】WEB-RiP - Samantha Jade - Soldier (1080p)]]></title>
                <link><![CDATA[https://sharemania.us/threads/samantha-jade-soldier-1080p.251263/]]></link>
                <description><![CDATA[<article>
<blockquote class="messageText SelectQuoteContainer ugc baseHtml">
<img src="https://i.postimg.cc/7hjmBFM8/Samantha-Jade-Soldier-mp4.jpg" class="bbCodeImage LbImage" alt="[​IMG]" data-url="https://i.postimg.cc/7hjmBFM8/Samantha-Jade-Soldier-mp4.jpg" style=""><br>
<br>
<div class="bbCodeBlock bbCodeCode">
<div class="type">Code:</div>
<pre>General
Complete name                  : G:\Новая папка\Samantha Jade - Soldier.mp4
Format                         : MPEG-4
Format profile                 : Base Media
Codec ID                       : isom (isom/iso2/avc1/mp41)
File size                      : 245 MiB
Duration                       : 3 min 20 s
Overall bit rate               : 10.2 Mb/s
Frame rate                     : 25.000 FPS
Movie name                     : Soldier
Performer                      : Samantha Jade
Genre                          : Pop
ContentType                    : Music Video
Recorded date                  : 2013-11-19 08:00:00 UTC
Writing application            : Lavf56.30.100
Copyright                      : ℗ (C) 2013 Sony Music Entertainment Australia Pty Ltd.

Video
ID                             : 1
Format                         : AVC
Format/Info                    : Advanced Video Codec
Format profile                 : High@L4
Format settings                : CABAC / 4 Ref Frames
Format settings, CABAC         : Yes
Format settings, Reference fra : 4 frames
Format settings, Slice count   : 8 slices per frame
Codec ID                       : avc1
Codec ID/Info                  : Advanced Video Coding
Duration                       : 3 min 20 s
Bit rate                       : 9 958 kb/s
Width                          : 1 920 pixels
Height                         : 1 080 pixels
Display aspect ratio           : 16:9
Frame rate mode                : Constant
Frame rate                     : 25.000 FPS
Color space                    : YUV
Chroma subsampling             : 4:2:0
Bit depth                      : 8 bits
Scan type                      : Progressive
Bits/(Pixel*Frame)             : 0.192
Stream size                    : 238 MiB (97%)
Color range                    : Limited
Color primaries                : BT.709
Transfer characteristics       : BT.709
Matrix coefficients            : BT.709
Codec configuration box        : avcC

Audio
ID                             : 2
Format                         : AAC LC
Format/Info                    : Advanced Audio Codec Low Complexity
Codec ID                       : mp4a-40-2
Duration                       : 3 min 20 s
Duration_LastFrame             : -9 ms
Bit rate mode                  : Constant
Bit rate                       : 251 kb/s
Channel(s)                     : 2 channels
Channel layout                 : L R
Sampling rate                  : 48.0 kHz
Frame rate                     : 46.875 FPS (1024 SPF)
Compression mode               : Lossy
Stream size                    : 6.02 MiB (2%)
Default                        : Yes
Alternate group                : 1

</pre>
</div>
<div class="bbCodeBlock bbCodeVfcHH HiddenContent">
<div class="attribution type">Hidden Content:</div>
<blockquote>You must either reply or click 'Like' to see the hidden information contained here.</blockquote>
</div>
<div class="messageTextEndMarker">&nbsp;</div>
</blockquote>
</article>]]></description>
                <author><![CDATA[vitalya3]]></author>
                </item>

                
                <item>
                <title><![CDATA[【Albums (lossy)】Dolby Atmos - Steve Aoki - Paragon - Dolby Atmos [E-AC-3 JOC 768kbps 16bit/48kHz]]]></title>
                <link><![CDATA[https://sharemania.us/threads/steve-aoki-paragon-dolby-atmos-e-ac-3-joc-768kbps-16bit-48khz.251264/]]></link>
                <description><![CDATA[<article>
<blockquote class="messageText SelectQuoteContainer ugc baseHtml">
<b>Steve Aoki - Paragon<br>
Released: June 28, 2024<br>
Genre: Dance/Electronic<br>
Source: Apple Music Rip<br>
<br>
<img src="https://i.imgur.com/HGQ0WeF.jpeg" class="bbCodeImage LbImage" alt="[​IMG]" data-url="https://i.imgur.com/HGQ0WeF.jpeg" style=""> </b><br>
<br>
Excited to give this album a listen. Hope you all enjoy!<br>
<br>
<div class="ToggleTriggerAnchor bbCodeSpoilerContainer">
<button type="button" class="button bbCodeSpoilerButton ToggleTrigger Tooltip JsOnly" data-target="> .SpoilerTarget"><span>Spoiler: <span class="SpoilerTitle">Tracklist</span></span></button>
<div class="SpoilerTarget bbCodeSpoilerText">Heavenly Hell (ft. NE-YO)<br>
Clapback (ft. Raphaella)<br>
2x2 with Chapter &amp; Verse &amp; Alika <br>
Mad (ft. Moonchild Sanelly)<br>
Electrowavebaby 2.0 with Kid Cudi<br>
Bum Bum with Sandro Silva and Natalhão<br>
3 Days (ft. Kalan.FrFr)<br>
Visa with Major League DJz (ft. Mannywellz) <br>
Weirder Things (ft. Xander850)<br>
Drive (ft. KIDDO)<br>
Play The Track with 22Bullet <br>
Lose My Mind with K?D<br>
Better Run with Just_us <br>
Flashing Lights with Bassjackers <br>
Voices In My Head with Bassjackers (feat. Teddy Bee) <br>
Get Lower with Lil Jon<br>
3 Days (ft. Kalan.FrFr) [Steve Aoki Hyro Energy Remix]<br>
Paragon</div>
</div><br>
<div class="ToggleTriggerAnchor bbCodeSpoilerContainer">
<button type="button" class="button bbCodeSpoilerButton ToggleTrigger Tooltip JsOnly" data-target="> .SpoilerTarget"><span>Spoiler: <span class="SpoilerTitle">Mediainfo</span></span></button>
<div class="SpoilerTarget bbCodeSpoilerText">General<br>
Complete name : F:\BLURAY MUSIC\0_Audio Only\0_ATMOS\Steve Aoki\Paragon\18. Paragon.m4a<br>
Format : MPEG-4<br>
Format profile : Base Media / Version 2<br>
Codec ID : mp42 (isom/M4A /mp42/dby1)<br>
File size : 19.0 MiB<br>
Duration : 3 min 22 s<br>
Overall bit rate mode : Constant<br>
Overall bit rate : 786 kb/s<br>
Album : Paragon<br>
Album/Performer : Steve Aoki<br>
Part/Position : 1<br>
Part/Total : 1<br>
Track name : Paragon<br>
Track name/Position : 18<br>
Track name/Total : 18<br>
Performer : Steve Aoki<br>
Composer : Steve Aoki<br>
Genre : Dance<br>
Recorded date : 2024-06-28<br>
Encoded date : 2024-07-28 19:22:56 UTC<br>
Tagged date : 2024-07-28 19:22:56 UTC<br>
ISRC : USA2P2433581<br>
Copyright : ℗ 2024 DJ Kid Millionaire Ltd<br>
Cover : Yes<br>
Rating : None<br>
com : Steve Aoki<br>
UPC : 198704010422<br>
trk : 18<br>
Audio<br>
ID : 1<br>
Format : E-AC-3 JOC<br>
Format/Info : Enhanced AC-3 with Joint Object Coding<br>
Commercial name : Dolby Digital Plus with Dolby Atmos<br>
Codec ID : ec-3<br>
Duration : 3 min 22 s<br>
Bit rate mode : Constant<br>
Bit rate : 768 kb/s<br>
Maximum bit rate : 811 kb/s<br>
Channel(s) : 6 channels<br>
Channel layout : L R C LFE Ls Rs<br>
Sampling rate : 48.0 kHz<br>
Frame rate : 31.250 FPS (1536 SPF)<br>
Compression mode : Lossy<br>
Stream size : 18.5 MiB (98%)<br>
Title : Paragon<br>
Service kind : Complete Main<br>
Default : Yes<br>
Alternate group : 1<br>
Encoded date : 2024-07-28 19:22:56 UTC<br>
Tagged date : 2024-07-28 19:22:57 UTC<br>
Complexity index : 16<br>
Number of dynamic objects : 15<br>
Bed channel count : 1 channel<br>
Bed channel configuration : LFE<br>
Dialog Normalization : -19 dB<br>
compr : 10.56 dB<br>
dmixmod : Lo/Ro<br>
ltrtcmixlev : -3.0 dB<br>
ltrtsurmixlev : -3.0 dB<br>
lorocmixlev : -3.0 dB<br>
lorosurmixlev : -3.0 dB<br>
dialnorm_Average : -19 dB<br>
dialnorm_Minimum : -19 dB<br>
dialnorm_Maximum : -19 dB</div>
</div><br>
<div class="bbCodeBlock bbCodeVfcHH HiddenContent">
<div class="attribution type">Hidden Content:</div>
<blockquote>You must reply before you can see the hidden data contained here.</blockquote>
</div>
<div class="bbCodeBlock bbCodeVfcHH HiddenContent">
<div class="attribution type">Hidden Content:</div>
<blockquote>You must reply before you can see the hidden data contained here.</blockquote>
</div>
<div class="bbCodeBlock bbCodeVfcHH HiddenContent">
<div class="attribution type">Hidden Content:</div>
<blockquote>You must either reply or click 'Like' to see the hidden information contained here.</blockquote>
</div>
<div class="messageTextEndMarker">&nbsp;</div>
</blockquote>
</article>]]></description>
                <author><![CDATA[schism]]></author>
                </item>

                </channel></rss>